<svg xmlns="http://www.w3.org/2000/svg" width="1280" height="1024">
  <path d="M1081.034 32.647c22.118-21.172 51.553-32.876 82.093-32.644 30.538.232 59.794 12.383 81.591 33.889 21.798 21.506 34.433 50.684 35.241 81.378.809 30.693-10.277 60.503-30.915 83.136L622.536 986.158a117.774 117.774 0 0 1-38.23 27.528c-14.454 6.497-30.063 9.999-45.893 10.294s-31.558-2.623-46.241-8.579a117.713 117.713 0 0 1-39.217-26.085L37.481 571.602a118.384 118.384 0 0 1-27.287-38.435C3.757 518.644.296 502.965.017 487.068s2.63-31.689 8.553-46.431c5.923-14.743 14.739-28.136 25.921-39.379s24.503-20.106 39.167-26.061 30.37-8.879 46.183-8.599a117.257 117.257 0 0 1 45.853 10.231 117.803 117.803 0 0 1 38.228 27.434l328.799 330.414L1078.05 36.12a42.17 42.17 0 0 1 3.14-3.473h-.156z"/>
</svg>
